<svg xmlns="http://www.w3.org/2000/svg" version="1.0" width="757" height="768" viewBox="0 0 131.305 133.3"><path d="M64.88 7.888c-30.857 0-55.907 25.081-55.907 55.938 0 27.689 20.186 50.69 46.625 55.125v-1.813c-25.467-4.4-44.812-26.586-44.812-53.312 0-29.891 24.202-54.156 54.093-54.156 29.891 0 54.157 24.265 54.157 54.156 0 26.616-19.245 48.722-44.563 53.25v1.844c26.293-4.558 46.344-27.51 46.344-55.094 0-30.857-25.081-55.938-55.938-55.938zm21.718 11.75c-.287.037-.447.125-.656.22-.68.344-1.435.702-2.156 1.124-.945.566-1.837 1.191-2.688 1.813a20.022 20.022 0 00-2.469 2.125c-.45.474-.938 1.005-1.562.968-.321-.018-.704-.214-.875-.468-.28-.33-.213-.826-.156-1.282.075-.62.156-1.123.25-1.687.073-.51.182-1.052.312-1.563v-.03-.032-.031-.063c0-.017-.031.02-.031 0h-.031c-.02 0-.013-.013-.032-.031h-.03c-.02 0-.045.013-.063.031h-.032c-.04.02-.075.012-.093.031-.207.146-.417.322-.625.47-.624.455-1.178.972-1.594 1.593-.321.49-.579 1.018-.938 1.531-.245.345-.552.722-.968.813-.245.055-.512.036-.72-.094-.227-.126-.4-.389-.53-.625-.34-.64-.714-1.18-1.188-1.656-.567-.622-1.285-1.118-2.062-1.5-.395-.221-.792-.4-1.188-.563-.041-.02-.076 0-.094 0h-.03c0-.018-.01-.031-.032-.031-.019 0-.013.031-.031.031-.018 0-.044-.018-.063 0-.019.017-.031.012-.031.031-.019.018 0 .014 0 .032v.062c0 .035-.019.058 0 .094.037.438.086.906.031 1.344-.06.696-.319 1.33-.469 1.968-.173.693-.228 1.353-.53 2.125-.152.327-.323.683-.626.72-.131.033-.291.004-.437-.032-.437-.11-.795-.234-1.157-.438-.602-.29-1.146-.75-1.656-1.187-.34-.276-.676-.552-1-.844-.02-.018-.062-.013-.062-.031 0-.02-.032-.031-.032-.031-.018-.016-.03 0-.03 0h-.063c-.022.015-.063 0-.063 0-.019.019-.012.044-.031.062v.063a.447.447 0 00-.031.156c-.038.199-.05.392-.032.594 0 .436.104.906.22 1.343.113.531.224 1.05.187 1.563-.058.526-.274 1.02-.5 1.531-.435-.127-.865-.243-1.188-.5-.397-.292-.66-.775-.812-1.25a6.121 6.121 0 01-.25-1.25c-.02-.035 0-.055 0-.094 0-.019-.017-.015-.032-.03 0-.02-.03-.015-.03-.032 0 0-.013-.031-.032-.031v-.032h-.093s-.032.016-.032.032h-.031s-.014.03-.032.03c-.056.037-.096.026-.156.063-.3.24-.436.604-.531.97-.113.436-.163.893-.219 1.312-.079.53-.155 1.03-.344 1.562-.133.4-.346.782-.687 1-.224.144-.486.25-.75.25-.456.02-.866-.206-1.281-.406-.662-.345-1.303-.697-1.813-1.188a8.741 8.741 0 01-1.219-1.375c-.018-.021-.025-.078-.062-.093 0 0-.013-.011-.031-.032v-.03h-.094s-.009-.02-.031 0c0 0-.032.015-.032.03-.016 0-.03.011-.03.032 0 0-.032.015-.032.03v.126a17.417 17.417 0 00-.25 1.719c-.056.652-.075 1.328 0 1.968.057.947.302 1.781.281 2.875-.02.35-.054.74-.281.938-.188.182-.554.232-.875.25-.436.036-.808.08-1.188.062-.677-.038-1.383-.204-2.062-.406-.85-.236-1.66-.514-2.375-.969-.324-.182-.606-.438-.906-.656-.02-.018-.063-.031-.063-.031-.017 0-.042-.031-.062-.031h-.062c-.02 0-.013.012-.032.03-.019 0-.013-.02-.031 0 0 0-.032.014-.032.032l-.03.031v.125a2.286 2.286 0 00-.126.47c-.057.381-.026.74.031 1.124.112.64.347 1.226.688 1.813.38.653.871 1.3.812 2.03a1.267 1.267 0 01-.28.72c-.232.31-.646.414-1.063.562-1.002.327-1.867.69-2.813 1-1.721.603-3.631 1.052-5.219 2-.546.328-1.05.71-1.562 1.094-.019.02-.013.015-.031.031h-.032c0 .02-.03.031-.03.031v.094c0 .02.012.016.03.031 0 .018-.017.014 0 .032l.032.03c.018.018.03 0 .03 0h.095c.585 0 1.217.023 1.78.095.587.076 1.086.221 1.75.437.322.094.662.175.72.375.075.204-.083.482-.25.719-.397.564-.844.92-1.282 1.281a26.746 26.746 0 00-2.156 2.094c-.395.438-.766.888-1.125 1.344-.041.035-.084.087-.125.125-.016.017 0 .012 0 .03 0 0-.031.014-.031.032v.063c0 .018.031.013.031.03 0 0-.016.013 0 .032h.031c.022.017.032 0 .032 0 .017 0 .01.031.03.031h.095c.075.018.173.032.25.032.943.072 1.892-.29 2.78-.563.85-.274 1.637-.463 2.563-.719.38-.11.773-.232 1.094-.03.19.108.396.31.375.53 0 .183-.127.364-.281.532-.773.93-1.488 1.639-2.281 2.406-.907.874-1.93 1.817-2.688 2.875-.305.382-.565.769-.812 1.187a.105.105 0 00-.032.063v.187h.032c0 .02.03.032.03.032.017.019.032 0 .032 0h.188c.206-.035.446-.071.656-.125.851-.167 1.662-.458 2.437-.75.945-.363 1.807-.7 2.844-1.157.681-.31 1.449-.678 2.031-.312.19.11.334.284.375.469.055.217-.086.48-.218.718-.34.584-.602 1.068-.844 1.594-.38.803-.76 1.7-.969 2.594-.151.566-.224 1.137-.281 1.719v.155c0 .018.031.013.031.032.021 0 .015.031.031.031 0 .017.032.015.032.032h.093a.02.02 0 01.032 0c.075-.057.163-.104.218-.157.225-.165.43-.349.657-.53.49-.401.99-.769 1.5-1.188.625-.51 1.228-1.06 1.906-1.407.869-.494 1.861-.668 2.844-1.343.433-.275.83-.646 1.25-.5.188.054.373.21.468.375.17.288.118.611.063.937-.078.532-.075 1.037-.188 1.531-.116.53-.335 1.051-.562 1.563a.753.753 0 00-.094.187c-.019 0 0 .032 0 .032v.062c.019.018 0 .031 0 .031l.031.032s.032.01.032.03h.03c.022.018.032 0 .032 0h.031c.023-.016.047 0 .063 0 .172-.02.359-.023.531-.062.549-.091 1.061-.352 1.531-.625.68-.365 1.303-.8 1.813-1.312.565-.528.999-1.092 1.719-1.656.397-.31.872-.68 1.25-.532.208.074.368.253.5.438.286.363.4.773.53 1.156.17.512.375 1.02.563 1.531.023.037.044.09.063.125 0 .02.012.032.031.032v.03c.019 0 .013-.017.031 0h.187s-.018-.013 0-.03c.02-.038.085-.057.126-.094.112-.163.242-.34.375-.5.455-.512.916-1.058 1.219-1.625.453-.766.566-1.565.906-2.656.17-.64.439-1.363.969-1.344.207 0 .463.09.593.25.208.222.188.562.188.875-.016.617.016 1.185 0 1.75-.023.55-.113 1.108-.188 1.656-.017.128-.043.265-.062.375v.031c0 .02.012.015.031.032 0 .015.011.04.031.062l.094.125s.013.031.031.031v.032c.02.019.063 0 .063 0h.094c.075-.052.143-.12.218-.157.413-.275.838-.565 1.22-.875.677-.547 1.24-1.211 1.75-1.906.51-.712.985-1.41 1.5-2.125.358-.473.713-.933 1.28-1.187.433-.2 1.028-.306 1.407-.125.358.165.572.567.78.968.057.655.108 1.325.126 2 .037 1.458-.123 2.916-.406 4.375-.472 2.628-1.4 5.144-2.438 7.625-1.171 2.847-2.515 5.6-3.437 8.5-.91 2.698-1.43 5.487-1.657 8.313a41.21 41.21 0 00-.062 6.125c.151 2.59.507 5.178.906 7.75.13.82.258 1.63.219 2.469 0 .293-.03.556-.219.812-.154.198-.395.41-.625.375-.189-.017-.355-.182-.469-.344-.13-.203-.202-.39-.28-.593-.188-.565-.332-1.179-.5-1.782-.495-1.768-1.087-3.483-1.845-5.125-1.21-2.738-2.816-5.336-4.593-7.78-1.812-2.553-3.823-4.969-6.125-7.157-2.29-2.226-4.883-4.224-7.813-5.594-1.341-.62-2.767-1.088-4.187-1.562l-.032.468c.113.02.208.039.282.094.153.09.183.342.218.563.02.288.113.518.282.718.19.256.466.521.75.72a22.99 22.99 0 012.718 2.405c2.342 2.32 4.454 4.93 6.438 7.594 2.099 2.791 4.056 5.623 5.625 8.688 1.741 3.266 3.011 6.761 4.125 10.28 1.21 3.813 2.217 7.724 2.875 11.626.399 2.388.705 4.767.969 7.156l8.78.344c.042-.746.057-1.515.095-2.281.018-.493.056-.989.093-1.5.133-2.096.388-4.202.75-6.282a62.6 62.6 0 011.844-7.625c.734-2.39 1.598-4.742 2.656-6.968.833-1.822 1.802-3.543 2.938-5.313.62-1.003 1.305-2.002 2.344-2.531.358-.2.76-.35 1.156-.406.527-.072 1.062.01 1.594.03.586.019 1.128-.064 1.718-.155 1.682-.221 3.36-.778 4.72-1.782a8.846 8.846 0 003-3.53c.623-1.293.887-2.716 1-4.157.134-1.314.12-2.65.437-3.906.343-1.625 1.213-3.132 1.968-4.625a80.786 80.786 0 001.5-3.125c.015-.018 0-.014 0-.032.023 0 .032-.043.032-.062 0 0-.01-.013-.032-.031v-.032c-.015 0-.008-.03-.03-.03 0-.02-.032-.015-.032-.032h-.031c-.022-.02-.012-.031-.032-.031h-.03c-.02.019-.015.03-.032.03-.019.018-.044.032-.063.032-.018.018-.012.045-.03.063-.155.143-.33.28-.5.406-.7.603-1.468 1.075-2.282 1.531-.834.438-1.641.881-2.531 1.156-1.344.473-2.813.547-4.25.657-2.213.144-4.398.392-6.438 1.125-1.949.635-3.81 1.691-5.187 3.187-.964 1.001-1.705 2.22-2.063 3.531-.454 1.444-.442 3.037-.156 4.532.091.62.266 1.213.531 1.78.208.494.466.951.75 1.407.021.02.044.026.063.063 0 0-.02.03 0 .03h.03c.017.02.012.032.032.032h.031c.018.02.012 0 .032 0h.062c.02 0 .011-.031.031-.031v-.031a.032.032 0 00.032-.032c.043-.072.052-.145.093-.218.075-.274.175-.551.25-.844.228-.782.372-1.608.657-2.375.36-1.077.955-2.046 1.75-2.938.87-1.026 1.98-1.914 3.093-2.406 1.004-.456 2.012-.598 3.375-1 .55-.164 1.15-.375 1.438-.062.15.164.216.494.156.75-.075.292-.351.473-.594.656-.567.455-1.038.919-1.53 1.375-1.55 1.496-2.953 3.255-4.313 4.969-1.988 2.482-3.934 4.886-5.688 7.53a47.99 47.99 0 00-3.625 6.282c-.661 1.35-1.207 2.671-2 4.188-.264.527-.571 1.07-1.062 1.218-.208.072-.44.032-.688.032.019-1.115.026-2.216-.031-3.313-.094-1.586-.358-3.148-.656-4.719-.398-2.08-.85-4.17-1.094-6.25-.265-2.008-.336-4.01-.125-6 .207-2.278.766-4.516 1.469-6.687a59.891 59.891 0 012.312-5.969c.833-1.932 1.783-3.86 2.5-5.812.775-2.024 1.348-4.103 1.594-6.313.265-1.918.269-3.919.156-5.687-.057-1.17-.207-2.197-.187-3.657 0-.329.04-.684.25-.812.15-.109.4-.086.625-.031.227.054.445.123.593.25.324.254.464.683.688 1.03.191.273.396.504.625.72.015.019.079.044.094.062v.031h.155l.032-.03.031-.032c.153-.164.31-.331.407-.531.19-.42.078-.945.093-1.438-.015-.528.127-1.028.313-1.5a6.04 6.04 0 01.594-1.219c.168-.255.36-.557.625-.593a.772.772 0 01.562.125c.381.218.595.648.688 1.03.075.348.08.704.156 1.032.075.584.26 1.139.469 1.688l.062.125v.03c0 .019.031.013.031.032h.032v.031h.093a.031.031 0 00.032-.03c.018 0 .03.016.03 0 .015 0 .032-.032.032-.032h.031c.02-.036.017-.058.032-.094.116-.165.22-.38.312-.562.191-.366.319-.742.375-1.125.131-.64.104-1.267.063-1.907-.038-.838-.125-1.692.312-2.406.15-.252.36-.511.625-.656.511-.348 1.241-.318 1.906-.281.774.017 1.51.037 2.25 0a24.794 24.794 0 002-.157.855.855 0 00.22-.03h.062l.062-.063v-.032-.03-.032-.063c-.056-.056-.104-.1-.156-.156a3.562 3.562 0 00-.531-.531c-.224-.183-.473-.337-.72-.5-.507-.31-.984-.64-1.25-1.313-.167-.386-.277-.928-.03-1.093.15-.128.453-.094.718-.094.737.022 1.314-.052 1.938-.125.907-.09 1.917-.14 2.844-.375.567-.128 1.106-.329 1.656-.531.052-.02.097-.075.156-.094h.031c.02 0 .014-.031.032-.031 0-.018.03-.012.03-.032v-.03c.02-.019 0-.013 0-.032v-.063c0-.018-.012-.013-.03-.03-.02-.021-.044-.048-.063-.063-.302-.24-.585-.448-.906-.688a10.36 10.36 0 00-.906-.656c-.68-.42-1.37-.682-1.938-1.375-.265-.311-.499-.712-.406-1 .075-.276.481-.492.844-.656.978-.456 1.738-.733 2.53-1.188.628-.348 1.28-.81 1.75-1.375.34-.383.586-.78.813-1.219.02-.036.058-.1.094-.156v-.031c.02 0 0-.043 0-.063v-.03h-.031c-.019-.02-.013-.045-.031-.063 0 0-.013.018-.032 0h-.062-.031c-.397-.018-.718-.028-1.188.062-.515.072-1.19.29-1.344.031-.148-.2.045-.697.25-1.062.21-.38.423-.646.688-.844.549-.479 1.389-.686 2.031-1.125.489-.292.904-.703 1.281-1.125.038-.052.058-.1.094-.156h.031c.018-.018.032-.04.032-.063v-.03-.032c0-.016-.032-.01-.032-.031 0-.016-.03-.045-.03-.063-.02 0-.015.018-.032 0-.019 0-.013-.01-.031-.031-.038 0-.057.016-.094 0-.434-.092-.86-.172-1.313-.188-.847-.073-1.755.042-2.53.188-.643.11-1.215.254-1.97.437-.586.144-1.272.328-1.593 0-.224-.199-.27-.593-.25-.937.018-.512.24-.945.468-1.344.452-.804.954-1.588 1.407-2.375.208-.328.395-.65.562-1 .056-.088.096-.16.156-.25.015-.018 0-.044 0-.062v-.032-.03c0-.019-.03-.013-.03-.032 0 0-.013-.031-.032-.031l-.031-.032h-.032c-.018-.019-.03-.019-.03 0h-.063v.032c-.094.054-.22.098-.313.156-.417.22-.804.425-1.219.625-.623.292-1.276.518-1.937.719-.665.199-1.339.349-2 .53.019-.144.044-.293.062-.437.042-.348.107-.704.22-1.03a3.967 3.967 0 01.812-1.438c.26-.33.537-.544.937-1 .188-.22.413-.505.281-.594-.06-.073-.256-.063-.406-.063zm-4.562 4.407c.043-.006.087-.018.125 0 .112.037.193.153.25.28.13.308.105.615.03.907-.115.565-.395 1.106-.624 1.656-.228.508-.371 1.063-.563 1.594.192-.018.363.007.532-.031.47-.071.905-.406 1.28-.625.682-.422 1.253-.612 2.157-1.125.381-.22.796-.512.969-.313.111.093.111.421.094.657-.038.276-.11.466-.188.687-.205.563-.535 1.15-.781 1.75-.263.619-.46 1.223-.688 1.844.303.054.588.112.875.094.545.018 1.105-.198 1.594-.344.549-.167.996-.274 1.75-.438.475-.106 1.019-.24 1.094-.093.154.126-.373.667-.75 1.03-.303.276-.504.457-.75.657-.583.492-1.361 1.1-2.25 1.375-.549.185-1.146.245-1.469.719-.092.125-.162.28-.125.406.019.182.248.348.438.438.303.146.56.182.843.218.08.022.14.032.22.032v.03h.03c.02 0 .044.032.063.032v.063c0 .019.019.015 0 .03v.095h-.031s-.013.01-.032.03c-.078.054-.13.12-.187.157a3.485 3.485 0 01-1 .406c-.453.126-1.033.177-1.219.563a.6.6 0 00-.031.406c.055.2.231.373.406.5.601.474 1.253.713 1.875 1.094.396.236.766.552 1.125.844a.788.788 0 01.125.093c.018.017.04.011.063.032 0 0-.017.03 0 .03a123.327 123.327 0 000 .063c0 .02.016.032 0 .032 0 .018-.01.03-.032.03 0 .02-.03.046-.03.063-.038.02-.057.03-.095.063-.153.094-.287.193-.437.25-.25.11-.485.184-.75.219-.434.073-.876.037-1.313 0-.568-.035-1.136-.04-1.718-.188-.363-.09-.773-.25-1.094-.125a.825.825 0 00-.313.219c-.23.271-.18.672-.03 1 .13.33.345.578.593.812.339.33.684.67.875 1.125.111.238.181.513.125.75-.036.183-.153.354-.25.5-.019 0 0 .032 0 .032-.015.016-.031.012-.031.03-.027 0-.032.014-.032.032-.017 0-.012-.018-.03 0h-.032c-.023 0-.044.018-.063 0-.168-.054-.358-.12-.53-.156-.512-.147-1.02-.25-1.532-.375-.376-.094-.716-.188-1.094-.188-.265 0-.541.013-.75.157a.841.841 0 00-.281.28c-.094.204-.006.45.031.688.079.29.069.553.031.844-.04.33-.088.709-.312.906-.191.184-.516.264-.781.282-.415.036-.76.02-1.157-.032-.586-.074-1.205-.182-1.75 0-.287.09-.533.24-.78.407.035.31.08.602.155.875.058.273.143.528.22.875.075.312.144.688-.063.78-.113.076-.314.04-.5 0-.382-.106-.68-.233-1-.343-.433-.148-.935-.248-1.407-.344-.078 0-.173-.013-.25-.03h-.062c-.02 0-.011.03-.031.03-.022.023-.045.015-.063.032 0 0 .019.03 0 .03v.032c-.037.146-.087.29-.125.438-.224.749-.445 1.504-.656 2.25-.206.714-.404 1.444-.594 2.156-.131-.058-.244-.136-.375-.188-.379-.201-.772-.403-1.187-.53-.34-.11-.704-.155-1.063-.188a8.499 8.499 0 00-.969-.063H65.6c-.017 0-.032-.017-.032 0-.019 0-.041.012-.063.031v.032c0 .018-.03.03-.03.03-.02.097-.046.148-.063.22-.115.42-.235.854-.407 1.218-.226.51-.48.843-.875 1.5-.456.71-1.083 1.877-1.406 1.532-.13-.109-.212-.445-.25-.72-.074-.397-.044-.729-.062-1.093 0-.31-.025-.67.03-1 .038-.418.182-.8.126-1.219a1.044 1.044 0 00-.469-.812c-.132-.095-.3-.11-.469-.094-.265.016-.446.212-.656.375-.319.256-.621.494-.906.75-.34.346-.654.772-.938 1.156-.415.602-.848 1.062-1.187 1.844-.153.366-.264.79-.563.844-.19.038-.438-.068-.687-.156-.148-.074-.295-.096-.406-.188-.264-.203-.32-.63-.282-1.031.038-.381.168-.756-.062-1.031-.111-.109-.288-.206-.438-.188-.208 0-.366.192-.5.375-.245.294-.423.57-.593.844-.244.42-.485.859-.75 1.312-.4.696-.91 1.377-1.625 1.688-.438.201-.94.26-1.47.312.02-.213 0-.439 0-.656v-.812c.02-.53.076-1.053 0-1.563a5.366 5.366 0 00-.124-.75v-.031c0-.017-.031-.031-.031-.031h-.032c-.018 0-.012-.032-.03-.032h-.095v.032c-.037 0-.052.01-.093.03a9.975 9.975 0 00-1.094.438c-.549.237-1.048.479-1.594.75-.587.278-1.244.539-1.812.813-.528.237-1 .484-1.72.5-.224.02-.454.016-.53-.094-.132-.146-.01-.462.125-.719a10.895 10.895 0 00.78-1.968c.093-.27.185-.537.282-.813.016-.072.044-.147.063-.219v-.03h.03V54.7c0-.022-.012-.031-.03-.031 0-.016.018-.032 0-.032 0-.02-.013-.013-.032-.03 0 0-.015-.032-.03-.032 0 0-.013-.031-.032-.031h-.063-.03v.03c-.036 0-.06.032-.095.032-.187.07-.407.118-.593.156-.778.198-1.594.157-2.407.157-.677 0-1.378.026-2.062.062 0-.236.004-.471.062-.687.1-.845.825-1.238 1.72-2.063.79-.69 1.73-1.764 1.218-2.094-.189-.162-.693-.169-1.125-.187-.474-.018-.873-.026-1.25-.063-.53-.055-1.025-.13-1.781-.218-.34-.037-.725-.114-.782-.282-.076-.16.247-.452.532-.687a6.65 6.65 0 011.28-.844c.815-.42 1.837-.93 2.688-1.531.513-.35.953-.744 1.407-1.125a.75.75 0 01.062-.063c.019-.015.013-.01.031-.03v-.032l.032-.031v-.032c0-.019-.032-.03-.032-.03a.03.03 0 00-.03-.032v-.063h-.032c-.019-.018-.063 0-.063 0h-.187a11.24 11.24 0 00-.781-.03c-.51.017-.973.15-1.594-.032-.303-.092-.625-.274-.625-.438-.038-.18.301-.368.625-.53a18.5 18.5 0 011.562-.72c.755-.31 1.65-.672 2.5-1 .57-.202 1.097-.423 1.625-.625.074-.018.145-.015.22-.03v-.032c.02 0 .01-.014.03-.031h.032c.02-.018.03-.063.03-.063v-.031c-.02-.016-.03-.031-.03-.031v-.032c-.06-.055-.12-.103-.157-.156-.153-.146-.273-.303-.406-.469-.226-.288-.419-.63-.625-.906-.301-.4-.607-.693-.906-1.219-.136-.222-.278-.46-.219-.625 0-.365.864-.219 1.469-.125.624.073 1.016.105 1.469.125.548.033 1.188.045 1.812.063.605.036 1.214.075 1.781-.125.265-.093.508-.239.657-.438.19-.2.28-.48.28-.75.02-.255-.038-.48-.093-.718-.079-.326-.155-.69-.25-1-.131-.493-.295-.936-.219-1.5.038-.384.208-.797.532-.907.207-.073.472 0 .718.094.57.182 1.03.433 1.5.688.38.183.77.32 1.188.468.242.09.517.183.781.22.301.017.628-.024.875-.188.208-.128.341-.345.438-.563.11-.31.13-.613.093-1.031-.037-.712-.15-1.93.344-1.875.17 0 .405.194.594.375.302.275.466.598.75.781.171.11.367.184.594.219.358.094.76.128 1.062 0 .359-.128.641-.507.813-.906.188-.42.223-.868.28-1.25.038-.33.082-.617.157-1 .02-.2.05-.43.125-.5.189-.348.753.534 1.188.937.28.27.54.354.843.5.236.099.493.231.75.281-.335.153-.667.281-1 .438-2.853 1.33-5.613 2.775-8.218 4.437-2.647 1.661-5.142 3.597-7.375 5.844-1.51 1.458-2.908 3.024-3.532 5.031-.526 1.48-.605 3.19.094 4.594a4.9 4.9 0 002.25 2.375c.848.477 1.829.69 2.813.781 1.038.092 2.072.073 3.093 0a22.07 22.07 0 003.97-.656c2.003-.472 3.93-1.205 5.78-2.062a48.79 48.79 0 004.532-2.407c.47-.27.965-.58 1.437-.875.568-.343 1.141-.699 1.688-1.062a68.32 68.32 0 004.843-3.469c1.853-1.404 3.653-2.87 5.188-4.656 1.112-1.26 2.094-2.684 2.344-4.344.225-1.13.098-2.354-.47-3.375-.6-1.134-1.74-1.972-2.968-2.5a8.722 8.722 0 00-1.844-.594c.078-.033.177-.056.25-.093 1.02-.437 1.758-1.32 2.625-2.032.232-.182.438-.32.625-.468.19-.145.398-.301.625-.47.127-.081.277-.14.407-.155zm-14.344.125c.189-.038.435.117.625.28.376.292.649.535.875.845.302.383.572.859.687 1.312.091.414.072.824.032 1.25-1.373.392-2.72.902-4.032 1.469.055-.083.088-.194.125-.281.092-.254.15-.483.188-.72.056-.33.129-.672.187-1 .054-.382.082-.76.157-1.124.115-.53.303-1.002.625-1.531.148-.237.323-.482.53-.5zm7.281 4.312c1.286-.037 2.56.142 3.75.688.926.384 1.829.987 2.281 1.843.415.731.497 1.662.344 2.5-.206 1.404-1.086 2.565-2.031 3.625-1.494 1.712-3.191 3.13-4.969 4.5a67.378 67.378 0 01-4.781 3.375l-1.625 1.032c-.474.29-.968.598-1.438.875a52.971 52.971 0 01-4.406 2.312c-1.757.82-3.591 1.562-5.5 2-1.212.292-2.45.472-3.719.563-.926.073-1.866.091-2.812 0-.774-.057-1.556-.199-2.219-.563a3.585 3.585 0 01-1.625-1.687c-.546-1.097-.451-2.442-.031-3.594.546-1.787 1.802-3.182 3.125-4.5 2.172-2.134 4.605-3.992 7.156-5.594 2.551-1.643 5.234-3.03 8.031-4.344 2.913-1.386 5.937-2.666 9.188-2.937.425-.055.852-.081 1.281-.094z" fill="green"/></svg>
